<svg xmlns="http://www.w3.org/2000/svg" width="64" height="64" x="0" y="0" viewBox="0 0 512 512">
    <g>
        <g data-name="Layer 2">
            <g data-name="Layer 1 copy 8">
                <g data-name="53">
                    <circle cx="256" cy="256" r="256" fill="#2f5ffc"></circle>
                    <path fill="#ffffff"
                        d="M403.25 399.56h-18.44V235.23a10.26 10.26 0 0 0-4.25-8.32l-96.05-69.57v-55.18a10.27 10.27 0 0 0-16.17-8.41l-137 95.86A10.25 10.25 0 0 0 127 198v201.56h-18.25a10.28 10.28 0 0 0 0 20.55h294.5a10.28 10.28 0 0 0 0-20.55zm-208.85-20a4.37 4.37 0 0 1-4.4 4.34h-15.79a4.37 4.37 0 0 1-4.36-4.37v-15.82a4.36 4.36 0 0 1 4.36-4.36H190a4.36 4.36 0 0 1 4.37 4.36zm0-39.71a4.36 4.36 0 0 1-4.37 4.36h-15.82a4.36 4.36 0 0 1-4.36-4.36V324a4.37 4.37 0 0 1 4.36-4.37H190a4.37 4.37 0 0 1 4.4 4.37zm0-39.72a4.37 4.37 0 0 1-4.37 4.37h-15.82a4.37 4.37 0 0 1-4.36-4.37v-15.85a4.36 4.36 0 0 1 4.36-4.36H190a4.36 4.36 0 0 1 4.37 4.36zm0-39.71a4.36 4.36 0 0 1-4.37 4.36h-15.82a4.36 4.36 0 0 1-4.36-4.36v-15.85a4.37 4.37 0 0 1 4.36-4.37H190a4.37 4.37 0 0 1 4.37 4.37zm0-39.72a4.37 4.37 0 0 1-4.4 4.3h-15.79a4.37 4.37 0 0 1-4.36-4.37v-15.77a4.36 4.36 0 0 1 4.36-4.37H190a4.36 4.36 0 0 1 4.37 4.37zm47.26 158.86a4.37 4.37 0 0 1-4.37 4.37h-15.82a4.37 4.37 0 0 1-4.36-4.37v-15.85a4.36 4.36 0 0 1 4.36-4.36h15.82a4.36 4.36 0 0 1 4.37 4.36zm0-39.71a4.36 4.36 0 0 1-4.37 4.36h-15.82a4.36 4.36 0 0 1-4.36-4.36V324a4.37 4.37 0 0 1 4.36-4.37h15.82a4.37 4.37 0 0 1 4.37 4.37zm0-39.72a4.37 4.37 0 0 1-4.37 4.37h-15.82a4.37 4.37 0 0 1-4.36-4.37v-15.85a4.36 4.36 0 0 1 4.36-4.36h15.82a4.36 4.36 0 0 1 4.37 4.36zm0-39.71a4.36 4.36 0 0 1-4.37 4.36h-15.82a4.36 4.36 0 0 1-4.36-4.36v-15.85a4.37 4.37 0 0 1 4.36-4.37h15.82a4.37 4.37 0 0 1 4.37 4.37zm0-39.72a4.37 4.37 0 0 1-4.37 4.37h-15.82a4.37 4.37 0 0 1-4.36-4.37v-15.84a4.36 4.36 0 0 1 4.36-4.37h15.82a4.36 4.36 0 0 1 4.37 4.37zm0-39.71a4.36 4.36 0 0 1-4.37 4.36h-15.82a4.36 4.36 0 0 1-4.36-4.36v-15.85a4.36 4.36 0 0 1 4.36-4.36h15.82a4.36 4.36 0 0 1 4.37 4.36zm95 198.57a4.37 4.37 0 0 1-4.37 4.37h-15.82a4.37 4.37 0 0 1-4.36-4.37v-15.85a4.36 4.36 0 0 1 4.36-4.36h15.82a4.36 4.36 0 0 1 4.37 4.36zm0-39.71a4.36 4.36 0 0 1-4.37 4.36h-15.82a4.36 4.36 0 0 1-4.36-4.36V324a4.37 4.37 0 0 1 4.36-4.37h15.82a4.37 4.37 0 0 1 4.37 4.37zm0-39.72a4.37 4.37 0 0 1-4.37 4.37h-15.82a4.37 4.37 0 0 1-4.36-4.37v-15.85a4.36 4.36 0 0 1 4.36-4.36h15.82a4.36 4.36 0 0 1 4.37 4.36zm0-39.71a4.36 4.36 0 0 1-4.37 4.36h-15.82a4.36 4.36 0 0 1-4.36-4.36v-15.85a4.37 4.37 0 0 1 4.36-4.37h15.82a4.37 4.37 0 0 1 4.37 4.37z">
                    </path>
                </g>
            </g>
        </g>
    </g>
</svg>